<svg xmlns="http://www.w3.org/2000/svg" viewBox="0 0 420 260" role="img" aria-labelledby="title desc">
  <title id="title">Maya Chen AI creator reference</title>
  <desc id="desc">Warm skincare creator portrait with a serum bottle and bathroom greenery.</desc>
  <defs>
    <linearGradient id="maya-bg" x1="0" x2="1" y1="0" y2="1">
      <stop offset="0" stop-color="#f8dec4"/>
      <stop offset="0.48" stop-color="#fff4e6"/>
      <stop offset="1" stop-color="#b7d7bd"/>
    </linearGradient>
    <linearGradient id="maya-skin" x1="0" x2="1" y1="0" y2="1">
      <stop offset="0" stop-color="#f4c9a6"/>
      <stop offset="1" stop-color="#d99572"/>
    </linearGradient>
    <linearGradient id="maya-hair" x1="0" x2="1" y1="0" y2="1">
      <stop offset="0" stop-color="#1c1414"/>
      <stop offset="1" stop-color="#4c3028"/>
    </linearGradient>
    <linearGradient id="maya-bottle" x1="0" x2="0" y1="0" y2="1">
      <stop offset="0" stop-color="#f7c95c"/>
      <stop offset="1" stop-color="#b85f1c"/>
    </linearGradient>
    <filter id="maya-shadow" x="-20%" y="-20%" width="140%" height="140%">
      <feDropShadow dx="0" dy="10" stdDeviation="12" flood-color="#5b3723" flood-opacity="0.25"/>
    </filter>
  </defs>
  <rect width="420" height="260" fill="url(#maya-bg)"/>
  <path d="M39 47c38 19 58 50 61 94" fill="none" stroke="#567f50" stroke-width="14" stroke-linecap="round" opacity="0.42"/>
  <path d="M58 37c25 31 34 66 27 105" fill="none" stroke="#355f3f" stroke-width="10" stroke-linecap="round" opacity="0.38"/>
  <path d="M373 34c-24 33-37 68-39 105" fill="none" stroke="#866443" stroke-width="18" stroke-linecap="round" opacity="0.18"/>
  <g filter="url(#maya-shadow)">
    <path d="M164 236c9-54 37-82 83-82 44 0 75 28 86 82z" fill="#fff7ef"/>
    <path d="M171 233c13-42 39-62 77-62 37 0 62 20 76 62z" fill="#f4dfd1"/>
    <path d="M169 102c-5 48 25 91 72 96 52 6 91-34 94-87 3-58-31-91-81-96-48-5-80 29-85 87z" fill="url(#maya-hair)"/>
    <path d="M196 103c-7 43 15 76 53 80 36 4 64-22 70-63 7-45-15-76-52-81-38-5-64 19-71 64z" fill="url(#maya-skin)"/>
    <path d="M204 96c27-6 53-1 79 15 10 7 22 8 36 4-3-45-29-69-73-73-37-4-62 14-76 55 12 5 23 5 34-1z" fill="url(#maya-hair)"/>
    <path d="M235 136c17 7 34 8 51 2" fill="none" stroke="#7b3d33" stroke-width="4" stroke-linecap="round"/>
    <circle cx="230" cy="114" r="4" fill="#2b2020"/>
    <circle cx="285" cy="119" r="4" fill="#2b2020"/>
    <path d="M256 116c-4 13-7 23-11 30 8 2 15 1 22-3" fill="none" stroke="#ba735d" stroke-width="4" stroke-linecap="round"/>
    <circle cx="304" cy="133" r="4" fill="#d78970" opacity="0.55"/>
  </g>
  <g transform="translate(80 121) rotate(-9)" filter="url(#maya-shadow)">
    <rect x="22" y="32" width="34" height="66" rx="9" fill="url(#maya-bottle)"/>
    <rect x="29" y="14" width="20" height="22" rx="4" fill="#1d2528"/>
    <rect x="25" y="52" width="28" height="20" rx="4" fill="#fff7d4" opacity="0.62"/>
    <circle cx="38" cy="64" r="6" fill="#f59b32"/>
  </g>
  <path d="M141 137c-19 13-26 30-21 51" fill="none" stroke="#cf8f72" stroke-width="17" stroke-linecap="round"/>
  <path d="M143 137c-4 17-5 31-2 43" fill="none" stroke="#f0b38e" stroke-width="7" stroke-linecap="round"/>
</svg>
